<svg width="163" height="31" viewBox="0 0 163 31" fill="none" xmlns="http://www.w3.org/2000/svg">
<path d="M13.0028 6.83426L13.2709 5.73077L13.4586 4.99512H9.03501L4.61142 10.0133H7.80177L7.346 11.905L4.61142 23.1763L2.94922 30.0337C3.08327 30.06 3.19051 30.06 3.32455 30.06H7.346L9.0082 23.1763L9.30311 21.9415L11.3675 13.3764L13.0028 6.83426Z" fill="white"/>
<path d="M24.9326 7.64874C23.6458 6.01978 21.5546 4.99512 19.0077 4.99512C17.2919 4.99512 15.6029 5.44177 14.0211 6.22997L12.3857 13.0348C12.5198 12.7458 12.6806 12.4831 12.8415 12.2203C13.2168 11.6423 13.6994 11.1431 14.2356 10.6965C15.308 9.82943 16.6484 9.30396 17.9889 9.30396C19.3294 9.30396 20.4286 9.82943 21.0988 10.6965C21.5814 11.327 21.8495 12.1152 21.8495 13.0085C21.8495 13.3501 21.7959 13.7179 21.7155 14.0857L21.5546 14.8214C21.2597 16.1351 20.4286 17.3174 19.3562 18.1844C18.2838 19.0514 16.9433 19.5769 15.6029 19.5769C14.2624 19.5769 13.1632 19.0514 12.4929 18.1844C11.9836 17.5276 11.6887 16.6868 11.7423 15.741L10.0801 22.5721C11.2865 23.4128 12.8415 23.912 14.6109 23.912C19.7316 23.912 24.8254 19.8396 26.005 14.8214L26.1659 14.0857C26.3267 13.3763 26.4072 12.7195 26.4072 12.0627C26.3803 10.3286 25.871 8.83104 24.9326 7.64874Z" fill="white"/>
<path d="M26.622 0.660156H3.37802C1.52815 0.660156 0 2.15774 0 3.97061V26.7497C0 28.4312 1.28686 29.8237 2.94906 30.0339L4.61126 23.1765L7.34584 11.9052L7.80161 10.0135H4.61126L9.00804 4.99528H13.4048L13.2172 5.73093L12.9491 6.83442L11.3673 13.4028L9.32976 21.9417L9.03485 23.1765L7.37265 30.0602H26.6488C28.5255 30.0602 30.0268 28.5626 30.0268 26.7497V3.97061C30 2.15774 28.4987 0.660156 26.622 0.660156ZM26.1394 14.0596L25.9786 14.7953C24.7989 19.8135 19.7051 23.8859 14.5845 23.8859C12.815 23.8859 11.2869 23.3867 10.0536 22.5459L11.7158 15.7148C11.689 16.6607 11.9571 17.5014 12.4665 18.1583C13.1367 19.0253 14.2359 19.5508 15.5764 19.5508C16.9169 19.5508 18.2574 19.0253 19.3298 18.1583C20.4021 17.2913 21.2332 16.1089 21.5282 14.7953L21.689 14.0596C21.9839 12.7459 21.7426 11.5636 21.0456 10.6966C20.3753 9.82959 19.2761 9.30412 17.9357 9.30412C16.5952 9.30412 15.2547 9.82959 14.1823 10.6966C13.6461 11.117 13.1635 11.6425 12.7882 12.2205C12.6273 12.4832 12.4665 12.7459 12.3324 13.035L13.9678 6.23013C15.5228 5.44193 17.2386 4.99528 18.9544 4.99528C21.5013 4.99528 23.5925 6.01994 24.8794 7.6489C25.8177 8.8312 26.3271 10.3551 26.3271 12.0366C26.3807 12.6934 26.3271 13.3765 26.1394 14.0596Z" fill="url(#paint0_linear_753_2253)"/>
<path d="M49.8933 3.9707H39.4375V26.7498H44.4241V19.367H49.8933C54.9335 19.367 58.66 16.1879 58.66 11.6688C58.6332 7.14979 54.9335 3.9707 49.8933 3.9707ZM49.3303 14.8742H44.3973V8.43719H49.3303C51.7967 8.43719 53.4858 9.69832 53.4858 11.6426C53.5126 13.6131 51.8236 14.8742 49.3303 14.8742Z" fill="#0E7DED"/>
<path d="M70.8588 9.19922C68.1778 9.19922 66.0331 10.5654 64.8802 12.7724V9.61959H59.9473V26.7762H64.8802V18.5526C64.8802 15.3472 67.2127 13.2716 70.8588 13.2716V9.19922Z" fill="#0E7DED"/>
<path d="M80.1882 9.19922C74.9872 9.19922 70.6172 13.2716 70.6172 18.1585C70.6172 23.0453 74.9872 27.144 80.1882 27.144C85.3625 27.144 89.7057 23.0191 89.7057 18.1585C89.7057 13.2979 85.3893 9.19922 80.1882 9.19922ZM80.1882 23.0716C77.5609 23.0716 75.3625 20.8121 75.3625 18.1585C75.3625 15.5048 77.5609 13.2716 80.1882 13.2716C82.7888 13.2716 84.9872 15.5048 84.9872 18.1585C85.014 20.8121 82.8156 23.0716 80.1882 23.0716Z" fill="#0E7DED"/>
<path d="M103.03 8.01639C105.174 8.01639 107.426 9.01478 108.82 10.5649L112.44 7.38582C110.107 4.99494 106.515 3.57617 103.03 3.57617C96.3003 3.57617 90.5898 8.93596 90.5898 15.3467C90.5898 21.7574 96.3003 27.1435 103.03 27.1435C106.515 27.1435 110.107 25.7247 112.44 23.3338V13.9542H102.145V17.7638H107.56V21.2582C106.247 22.1778 104.611 22.7295 103.03 22.7295C99.0617 22.7295 95.7105 19.3402 95.7105 15.373C95.7373 11.4057 99.0885 8.01639 103.03 8.01639Z" fill="#0E7DED"/>
<path d="M119.759 12.7987V9.61959H114.826V26.7762H119.759V18.5526C119.759 15.3472 122.092 13.2716 125.738 13.2716V9.19922C123.084 9.19922 120.912 10.5654 119.759 12.7987Z" fill="#0E7DED"/>
<path d="M134.718 9.19922C132.279 9.19922 129.893 9.85606 127.399 11.0909L129.061 14.2963C130.456 13.5869 131.984 13.0614 133.592 13.0614C136.461 13.0614 137.614 14.6641 137.614 16.477V16.8185C136.112 16.2668 134.557 15.9515 133.137 15.9515C129.088 15.9515 125.871 18.2636 125.871 21.6528C125.871 24.937 128.74 27.1177 132.466 27.1177C134.37 27.1177 136.354 26.3821 137.614 24.9896V26.7236H142.386V16.477C142.386 12.0368 139.276 9.19922 134.718 9.19922ZM137.614 21.3376C137.265 22.9402 135.469 23.781 133.592 23.781C131.903 23.781 130.643 22.914 130.643 21.5215C130.643 20.129 132.064 19.1043 133.86 19.1043C135.201 19.1043 136.488 19.3408 137.614 19.7349V21.3376Z" fill="#0E7DED"/>
<path d="M157.91 3.57617V12.0625C156.516 10.2759 154.505 9.19869 152.012 9.19869C147.347 9.19869 143.969 12.9032 143.969 18.1579C143.969 23.4389 147.347 27.1435 152.012 27.1435C154.478 27.1435 156.516 26.0925 157.91 24.2797V26.7231H162.843V3.57617H157.91ZM153.459 23.0711C150.725 23.0711 148.794 21.048 148.794 18.1579C148.794 15.2941 150.725 13.2711 153.459 13.2711C156.06 13.2711 157.937 15.2941 157.937 18.1579C157.91 21.048 156.06 23.0711 153.459 23.0711Z" fill="#0E7DED"/>
<defs>
<linearGradient id="paint0_linear_753_2253" x1="15.0015" y1="0.405015" x2="15.0015" y2="30.4816" gradientUnits="userSpaceOnUse">
<stop offset="0.0228672" stop-color="#0E7DED"/>
<stop offset="1" stop-color="#1739E6"/>
</linearGradient>
</defs>
</svg>
