<svg width="600" height="400" viewBox="0 0 600 400" fill="none" xmlns="http://www.w3.org/2000/svg">
<path d="M535.264 82.0391L495.768 82.5191L496.392 134.023L535.896 134.535L535.264 82.0391Z" fill="#EBEBEB"/>
<path d="M532.447 83.9121L497.887 84.3281L498.455 131.032L533.023 131.784L532.447 83.9121Z" fill="#FAFAFA"/>
<path d="M526.735 92.4631L503.799 91.8711L504.191 124.519L527.119 124.239L526.735 92.4631Z" fill="#E0E0E0"/>
<path d="M504.191 124.519L526.919 107.471L503.799 91.8711L504.191 124.519Z" fill="#F5F5F5"/>
<path d="M113.656 115.631L56.8398 116.319L57.7358 190.415L114.576 191.159L113.656 115.631Z" fill="#EBEBEB"/>
<path d="M109.607 118.32L59.8867 118.92L60.7027 186.128L110.439 187.2L109.607 118.32Z" fill="#FAFAFA"/>
<path d="M101.391 130.631L68.3828 129.775L68.9508 176.743L101.943 176.343L101.391 130.631Z" fill="#E0E0E0"/>
<path d="M68.9508 176.743L101.655 152.215L68.3828 129.775L68.9508 176.743Z" fill="#F5F5F5"/>
<path d="M159.255 95.4551H137.975V141.015H159.255V95.4551Z" fill="#F5F5F5"/>
<path d="M186.295 144.191H160.143V188.207H186.295V144.191Z" fill="#F5F5F5"/>
<path d="M189.479 94.6634H214.311V54.2554H215.199V94.6634H238.174V53.3594H189.479V94.6634Z" fill="#F5F5F5"/>
<path d="M159.255 144.191H137.975V188.207H159.255V144.191Z" fill="#F5F5F5"/>
<path d="M238.175 144.191H215.191V188.207H238.175V144.191Z" fill="#F5F5F5"/>
<path d="M186.295 95.4551H160.143V141.015H186.295V95.4551Z" fill="#F5F5F5"/>
<path d="M238.175 95.4551H215.191V141.015H238.175V95.4551Z" fill="#F5F5F5"/>
<path d="M159.255 189H137.975V228.664H159.255V189Z" fill="#F5F5F5"/>
<path d="M159.263 94.6634V54.2554H160.143V94.6634H186.295V53.3594H137.975V94.6634H159.263Z" fill="#F5F5F5"/>
<path d="M186.295 189H160.143V228.664H186.295V189Z" fill="#F5F5F5"/>
<path d="M238.175 189H215.191V228.664H238.175V189Z" fill="#F5F5F5"/>
<path d="M214.311 95.4551H189.479V141.015H214.311V95.4551Z" fill="#F5F5F5"/>
<path d="M214.311 189H189.479V228.664H214.311V189Z" fill="#F5F5F5"/>
<path d="M214.311 144.191H189.479V188.207H214.311V144.191Z" fill="#F5F5F5"/>
<path d="M388.2 95.4551H366.92V141.015H388.2V95.4551Z" fill="#F5F5F5"/>
<path d="M415.24 144.191H389.088V188.207H415.24V144.191Z" fill="#F5F5F5"/>
<path d="M418.424 94.6634H443.256V54.2554H444.136V94.6634H467.12V53.3594H418.424V94.6634Z" fill="#F5F5F5"/>
<path d="M388.2 144.191H366.92V188.207H388.2V144.191Z" fill="#F5F5F5"/>
<path d="M467.119 144.191H444.135V188.207H467.119V144.191Z" fill="#F5F5F5"/>
<path d="M415.24 95.4551H389.088V141.015H415.24V95.4551Z" fill="#F5F5F5"/>
<path d="M467.119 95.4551H444.135V141.015H467.119V95.4551Z" fill="#F5F5F5"/>
<path d="M388.2 189H366.92V228.664H388.2V189Z" fill="#F5F5F5"/>
<path d="M388.208 94.6634V54.2554H389.088V94.6634H415.24V53.3594H366.92V94.6634H388.208Z" fill="#F5F5F5"/>
<path d="M415.24 189H389.088V228.664H415.24V189Z" fill="#F5F5F5"/>
<path d="M467.119 189H444.135V228.664H467.119V189Z" fill="#F5F5F5"/>
<path d="M443.256 95.4551H418.424V141.015H443.256V95.4551Z" fill="#F5F5F5"/>
<path d="M443.256 189H418.424V228.664H443.256V189Z" fill="#F5F5F5"/>
<path d="M443.256 144.191H418.424V188.207H443.256V144.191Z" fill="#F5F5F5"/>
<path d="M323.711 69.375H276.279V129.255H323.711V69.375Z" fill="#EBEBEB"/>
<path d="M303.584 127.92H297.008V129.52H303.584V127.92Z" fill="#E0E0E0"/>
<path d="M301.52 89.9922L292.784 91.2722L289.52 99.4802L294.992 106.408L303.736 105.128L306.992 96.9202L301.52 89.9922Z" fill="#E0E0E0"/>
<path d="M305.6 95.2949L296.864 96.5749L293.6 104.783L299.08 111.711L307.816 110.431L311.08 102.223L305.6 95.2949Z" fill="#FAFAFA"/>
<path d="M304.512 68.5664H297.936V69.9344H304.512V68.5664Z" fill="#E0E0E0"/>
<path d="M52.2871 273.743V351.887H169.423V273.111L52.2871 273.743Z" fill="#EBEBEB"/>
<path d="M164.999 278.592H56.7188V298.36H164.999V278.592Z" fill="#F5F5F5"/>
<path d="M164.999 303H56.7188V322.768H164.999V303Z" fill="#F5F5F5"/>
<path d="M164.999 327.398H56.7188V347.166H164.999V327.398Z" fill="#F5F5F5"/>
<path d="M90.2868 278.592H56.7188V298.36H90.2868V278.592Z" fill="#E0E0E0"/>
<path d="M90.2868 303H56.7188V322.768H90.2868V303Z" fill="#E0E0E0"/>
<path d="M90.1344 327.264H56.5664V347.032H90.1344V327.264Z" fill="#E0E0E0"/>
<path d="M92.832 298.36L103.408 281.936L115.016 298.36H92.832Z" fill="#E0E0E0"/>
<path d="M103.408 281.936L103.92 298.36H92.832L103.408 281.936Z" fill="#EBEBEB"/>
<path d="M118.727 298.359L123.231 292.127L128.583 298.359H118.727Z" fill="#E0E0E0"/>
<path d="M123.231 292.127L123.655 298.359H118.727L123.231 292.127Z" fill="#EBEBEB"/>
<path d="M76.7269 318.831C76.7612 317.914 77.1434 317.045 77.7958 316.4C78.4482 315.755 79.3218 315.383 80.2389 315.359L108.863 314.703V322.567H80.3269C79.8428 322.566 79.3638 322.468 78.9184 322.278C78.473 322.089 78.0704 321.811 77.7345 321.463C77.3986 321.114 77.1363 320.701 76.9632 320.249C76.7901 319.797 76.7097 319.315 76.7269 318.831Z" fill="#F5F5F5"/>
<path d="M79.6307 316.903C79.2434 317.555 79.0391 318.3 79.0391 319.059C79.0391 319.818 79.2434 320.562 79.6307 321.215H108.863V316.047L79.6307 316.903Z" fill="#EBEBEB"/>
<path d="M83.9037 311.84C83.9281 311.125 84.2251 310.446 84.7339 309.943C85.2427 309.441 85.9246 309.152 86.6397 309.136L108.952 308.6V314.736H86.7117C86.3355 314.736 85.963 314.66 85.6164 314.514C85.2699 314.367 84.9563 314.152 84.6944 313.882C84.4325 313.612 84.2275 313.292 84.0917 312.941C83.9558 312.59 83.8919 312.216 83.9037 311.84Z" fill="#EBEBEB"/>
<path d="M86.168 310.4C85.865 310.908 85.7051 311.488 85.7051 312.08C85.7051 312.671 85.865 313.252 86.168 313.76H108.952V309.76L86.168 310.4Z" fill="#FAFAFA"/>
<path d="M109 304.68L108.928 322.712L112.696 322.768V304.68H109Z" fill="#FAFAFA"/>
<path d="M116.983 307.184L116.879 322.72L122.711 322.768V307.184H116.983Z" fill="#E0E0E0"/>
<path d="M112.774 307.184L112.742 322.72L114.622 322.768V307.184H112.774Z" fill="#E0E0E0"/>
<path d="M122.751 307.184L122.711 322.72L124.599 322.768V307.184H122.751Z" fill="#FAFAFA"/>
<path d="M114.343 304.68L114.295 322.712L116.871 322.768V304.68H114.343Z" fill="#EBEBEB"/>
<path d="M124.72 304.68L124.68 322.712L127.248 322.768V304.68H124.72Z" fill="#E0E0E0"/>
<path d="M150.16 322.512H141.36L135 316.2L135.072 316.136L141.384 309.808H141.424L147.872 309.32L154.984 314.92L150.16 322.512ZM141.472 322.312H150.048L154.752 314.96L147.808 309.504L141.472 309.976L135.28 316.176L141.472 322.312Z" fill="#E0E0E0"/>
<path d="M143.222 322.471L138.326 315.567L138.35 315.511L141.398 309.711L143.278 311.551H146.254L147.846 309.215L151.462 314.927L151.438 314.983L147.686 322.463L147.502 322.367L151.238 314.943L147.838 309.583L146.358 311.751H143.19L143.166 311.719L141.454 310.047L138.558 315.551L143.39 322.359L143.222 322.471Z" fill="#E0E0E0"/>
<path d="M135.151 316.28L135.127 316.08L142.007 315.128L149.239 314.84L154.887 314.832V315.032L149.239 315.04L142.023 315.328L135.151 316.28Z" fill="#E0E0E0"/>
<path d="M144.128 322.447L141.92 315.223L141.928 315.191L143.144 311.615L143.328 311.687L142.128 315.223L144.32 322.383L144.128 322.447Z" fill="#E0E0E0"/>
<path d="M146.071 322.448L145.879 322.392L148.047 314.952L146.223 311.704L146.399 311.6L148.255 314.92L148.247 314.96L146.071 322.448Z" fill="#E0E0E0"/>
<path d="M508.975 230.583C503.799 231.383 501.487 237.783 501.943 242.983C502.399 248.183 504.535 253.295 503.967 258.503C503.239 265.111 498.239 270.703 497.663 277.327C496.975 285.135 502.463 292.063 504.143 299.727C504.943 303.455 504.839 307.399 506.223 310.927C507.406 313.952 509.602 316.473 512.436 318.06C515.27 319.648 518.567 320.203 521.765 319.633C524.963 319.062 527.864 317.4 529.973 314.93C532.083 312.46 533.271 309.335 533.335 306.087C533.455 300.087 529.751 294.439 530.199 288.487C530.535 284.063 533.127 279.879 532.599 275.479C531.943 270.239 527.087 266.527 525.399 261.535C523.711 256.543 525.335 251.039 524.743 245.791C523.679 236.383 518.463 229.791 509.031 230.591" fill="#EBEBEB"/>
<path d="M482.568 276.135C481.688 284.855 485.544 295.111 490.032 302.639C494.574 310.216 501.411 316.151 509.552 319.583C510.464 319.967 511.592 320.287 512.36 319.663C512.635 319.364 512.841 319.009 512.964 318.622C513.087 318.235 513.124 317.825 513.072 317.423C513.136 308.255 509.928 299.239 504.696 291.703C499.712 284.503 495.008 280.255 482.568 276.135Z" fill="#F5F5F5"/>
<path d="M520.551 337.815C520.45 337.662 520.367 337.499 520.303 337.327C520.135 336.951 519.927 336.479 519.679 335.895C519.151 334.655 518.375 332.863 517.375 330.663C512.197 319.191 505.837 308.289 498.399 298.135C496.967 296.183 495.791 294.623 494.967 293.559L494.023 292.311C493.903 292.174 493.803 292.021 493.727 291.855C493.862 291.976 493.987 292.107 494.103 292.247L495.111 293.439C495.991 294.471 497.207 295.999 498.679 297.927C506.301 307.995 512.696 318.937 517.727 330.519C518.687 332.743 519.423 334.559 519.887 335.831C520.103 336.423 520.287 336.903 520.423 337.287C520.486 337.458 520.529 337.635 520.551 337.815Z" fill="#E0E0E0"/>
<path d="M514.934 254.703C514.986 254.967 515.018 255.234 515.03 255.503C515.07 256.095 515.135 256.895 515.207 257.903C515.343 260.039 515.534 263.047 515.774 266.703C516.246 274.167 516.902 284.471 517.702 295.847C518.502 307.223 519.303 317.519 519.87 324.975C520.158 328.671 520.382 331.671 520.55 333.775C520.614 334.783 520.67 335.591 520.71 336.175C520.732 336.455 520.732 336.736 520.71 337.015C520.652 336.751 520.612 336.484 520.59 336.215C520.526 335.623 520.438 334.823 520.334 333.815C520.134 331.679 519.846 328.687 519.534 325.015C518.862 317.567 518.023 307.271 517.223 295.887C516.423 284.503 515.814 274.199 515.43 266.735C515.262 263.039 515.119 260.023 515.023 257.887C515.023 256.879 514.958 256.079 514.934 255.487C514.918 255.226 514.918 254.964 514.934 254.703Z" fill="#E0E0E0"/>
<path d="M506.92 325.375H528.752V341.375C528.752 344.154 527.648 346.82 525.682 348.785C523.717 350.751 521.051 351.855 518.272 351.855C515.589 351.857 513.008 350.829 511.061 348.983C509.114 347.137 507.949 344.614 507.808 341.935L506.92 325.375Z" fill="#E0E0E0"/>
<path d="M219.575 170.648C220.431 170.701 221.289 170.582 222.097 170.297C222.906 170.012 223.649 169.568 224.282 168.99C224.916 168.413 225.427 167.714 225.785 166.935C226.143 166.156 226.341 165.313 226.367 164.456C226.455 160.984 226.535 157.48 226.535 157.48C226.535 157.48 231.783 156.92 232.135 151.72C232.487 146.52 232.135 134.504 232.135 134.504C229.236 133.086 226.01 132.467 222.792 132.71C219.573 132.953 216.477 134.05 213.823 135.888L213.023 136.448L213.639 164.448C213.685 166.034 214.317 167.546 215.414 168.691C216.511 169.837 217.994 170.534 219.575 170.648Z" fill="#B78876"/>
<path d="M229.744 143.689C229.637 143.583 229.564 143.448 229.534 143.3C229.505 143.153 229.52 143 229.577 142.861C229.634 142.722 229.732 142.603 229.857 142.519C229.982 142.435 230.129 142.391 230.28 142.391C230.43 142.391 230.577 142.435 230.702 142.519C230.827 142.603 230.925 142.722 230.982 142.861C231.039 143 231.054 143.153 231.025 143.3C230.995 143.448 230.922 143.583 230.816 143.689C230.673 143.831 230.48 143.911 230.28 143.911C230.079 143.911 229.886 143.831 229.744 143.689Z" fill="#263238"/>
<path d="M231.766 142.784C231.678 142.872 231.182 142.448 230.47 142.416C229.758 142.384 229.214 142.72 229.134 142.624C229.054 142.528 229.19 142.424 229.422 142.256C229.741 142.051 230.116 141.953 230.494 141.976C230.872 141.999 231.231 142.145 231.518 142.392C231.734 142.576 231.806 142.744 231.766 142.784Z" fill="#263238"/>
<path d="M222.936 142.784C223.04 142.829 223.133 142.896 223.208 142.981C223.282 143.066 223.337 143.166 223.368 143.275C223.399 143.384 223.405 143.499 223.386 143.61C223.367 143.722 223.323 143.828 223.258 143.92C223.193 144.013 223.108 144.089 223.009 144.145C222.911 144.2 222.801 144.233 222.688 144.241C222.575 144.249 222.462 144.231 222.357 144.189C222.252 144.148 222.157 144.083 222.08 144C221.935 143.879 221.84 143.708 221.814 143.52C221.788 143.333 221.833 143.142 221.94 142.986C222.047 142.83 222.208 142.72 222.393 142.676C222.577 142.633 222.771 142.66 222.936 142.752V142.784Z" fill="#263238"/>
<path d="M223.944 143.041C223.856 143.129 223.368 142.705 222.648 142.673C221.928 142.641 221.392 142.977 221.32 142.881C221.248 142.785 221.368 142.681 221.608 142.513C221.925 142.307 222.301 142.21 222.678 142.234C223.056 142.259 223.415 142.404 223.704 142.649C223.92 142.833 224 143.001 223.944 143.041Z" fill="#263238"/>
<path d="M226.559 148.576C226.935 148.449 227.33 148.386 227.727 148.392C227.919 148.392 228.063 148.344 228.087 148.24C228.102 148.052 228.063 147.863 227.975 147.696C227.815 147.216 227.655 146.728 227.479 146.216C227.006 144.955 226.658 143.65 226.439 142.32C227.045 143.524 227.525 144.786 227.871 146.088L228.335 147.584C228.447 147.836 228.469 148.118 228.399 148.384C228.369 148.454 228.322 148.517 228.264 148.566C228.206 148.616 228.137 148.653 228.063 148.672C227.955 148.687 227.844 148.687 227.735 148.672C227.341 148.711 226.943 148.678 226.559 148.576Z" fill="#263238"/>
<path d="M224.183 149.256L227.655 150.456C227.391 150.824 227.009 151.091 226.573 151.214C226.136 151.336 225.671 151.306 225.255 151.128C223.743 150.48 224.183 149.256 224.183 149.256Z" fill="white"/>
<path d="M226.544 157.401C224.137 157.326 221.806 156.538 219.848 155.137C219.848 155.137 221.272 158.969 226.488 158.753L226.544 157.401Z" fill="#A36957"/>
<path d="M230.991 133.137C226.696 131.63 222.059 131.388 217.631 132.441C217.631 132.441 213.207 134.041 213.007 136.441C212.911 138.399 212.954 140.361 213.135 142.313L213.511 146.313H215.111L215.271 140.889C215.271 140.889 218.311 138.737 218.335 135.441C219.823 135.225 227.135 134.273 232.159 135.913V134.753C232.15 134.397 232.033 134.053 231.825 133.764C231.616 133.476 231.326 133.257 230.991 133.137Z" fill="#263238"/>
<path d="M213.728 142.737C213.728 142.525 213.643 142.322 213.493 142.172C213.343 142.022 213.14 141.938 212.928 141.938C211.96 141.938 210.376 142.321 210.256 145.009C210.088 148.841 213.76 147.841 213.776 147.729C213.792 147.617 213.76 144.225 213.728 142.737Z" fill="#B78876"/>
<path d="M212.951 146.256C212.951 146.256 212.879 146.304 212.767 146.352C212.608 146.416 212.431 146.416 212.271 146.352C212.031 146.185 211.839 145.957 211.715 145.691C211.592 145.426 211.541 145.132 211.567 144.84C211.574 144.51 211.653 144.185 211.799 143.888C211.839 143.77 211.907 143.664 211.998 143.579C212.089 143.494 212.199 143.432 212.319 143.4C212.397 143.381 212.478 143.391 212.549 143.428C212.62 143.465 212.675 143.526 212.703 143.6C212.751 143.712 212.703 143.784 212.743 143.792C212.783 143.8 212.831 143.728 212.807 143.568C212.787 143.475 212.737 143.39 212.663 143.328C212.564 143.242 212.435 143.199 212.303 143.208C212.144 143.234 211.994 143.3 211.867 143.399C211.739 143.498 211.639 143.628 211.575 143.776C211.4 144.101 211.306 144.463 211.303 144.832C211.27 145.172 211.337 145.514 211.496 145.815C211.655 146.117 211.9 146.365 212.199 146.528C212.301 146.565 212.409 146.578 212.516 146.566C212.623 146.553 212.726 146.516 212.815 146.456C212.943 146.352 212.967 146.264 212.951 146.256Z" fill="#A36957"/>
<path d="M289.599 147.01C288.559 146.65 286.399 152.25 286.191 150.778C285.983 149.306 289.591 144.226 288.487 143.89C287.047 143.45 284.927 149.362 284.711 149.842C284.495 150.322 283.783 150.034 283.999 149.61C284.311 148.986 287.463 142.41 286.055 141.986C285.255 141.738 284.959 143.186 284.959 143.186C284.959 143.186 282.463 149.538 281.807 149.306C281.151 149.074 282.479 145.306 283.023 144.05C283.567 142.794 283.191 142.066 282.447 142.282C281.943 142.426 280.199 146.194 279.687 147.434C279.175 148.674 277.855 152.098 277.135 149.874C276.415 147.65 275.023 146.218 274.375 146.09C274.224 146.075 274.072 146.108 273.94 146.184C273.808 146.26 273.704 146.376 273.641 146.514C273.579 146.653 273.561 146.807 273.591 146.957C273.62 147.106 273.696 147.242 273.807 147.346C274.282 147.976 274.664 148.671 274.943 149.41C275.193 149.994 275.342 150.616 275.383 151.25C275.487 152.521 275.465 153.799 275.319 155.066L262.479 178.178L241.871 170.402L239.039 182.178C239.039 182.178 266.111 194.106 267.799 193.186C271.623 191.106 283.639 157.474 283.639 157.474C285.421 155.192 287.076 152.815 288.599 150.354C290.287 147.306 290.023 147.146 289.599 147.01Z" fill="#B78876"/>
<path d="M254.632 174.448C248.904 171.592 244.848 169.904 241.712 167.944C231.976 161.856 229.448 163.264 227.168 163.008C225.264 163.616 222.456 164.768 221.384 164.976C220.312 165.184 216.384 163.912 213.848 163.16C207.968 163.488 204.4 166.032 199.016 170.096L188.08 178.768L201.024 192L205.024 188.96C205.264 194.952 205.48 195.008 205.784 201.152L206.04 224.816L242.624 226.416L240.32 202.776L239.2 184.176L249.688 189.248L254.656 174.448" fill="#0E7DED"/>
<path d="M213.343 163.864L213.295 160.064C213.295 160.064 219.831 160.672 221.215 165.192L213.343 163.864Z" fill="#0E7DED"/>
<path d="M227.199 163.584L226.615 159.904C225.266 160.094 224.013 160.709 223.037 161.66C222.061 162.611 221.415 163.848 221.191 165.192L227.199 163.584Z" fill="#0E7DED"/>
<path d="M227.872 177.033C228.286 176.956 228.707 176.921 229.128 176.929C229.928 176.929 231.184 176.833 232.672 176.793H232.848V176.969C232.848 178.417 232.904 180.073 232.944 181.857V181.961L232.856 182.025L232.504 182.273L230.64 183.585L230.528 183.665L230.416 183.593L227.84 181.993L227.752 181.937V181.841C227.752 180.361 227.752 179.145 227.8 178.313C227.79 177.893 227.814 177.473 227.872 177.057C227.937 177.503 227.98 177.951 228 178.401C228 179.241 228.096 180.417 228.128 181.817L228.048 181.665L230.648 183.265H230.4L232.264 181.945L232.608 181.697L232.52 181.865C232.52 180.089 232.52 178.425 232.52 176.985L232.696 177.153C231.288 177.153 230.112 177.153 229.272 177.105C228.804 177.106 228.337 177.082 227.872 177.033Z" fill="#263238"/>
<path d="M232.568 178.169C231.784 178.369 230.973 178.436 230.168 178.369C229.362 178.438 228.55 178.367 227.768 178.161C228.549 177.951 229.362 177.881 230.168 177.953C230.974 177.882 231.787 177.955 232.568 178.169Z" fill="#263238"/>
<path d="M221.352 172.289C221.125 171.122 221.039 169.933 221.096 168.745C221.01 167.559 221.066 166.366 221.264 165.193C221.481 166.361 221.564 167.55 221.512 168.737C221.593 169.924 221.539 171.115 221.352 172.289Z" fill="#263238"/>
<path d="M222.655 166.137C222.655 166.089 222.823 165.993 223.031 166.137C223.093 166.192 223.14 166.262 223.17 166.34C223.199 166.418 223.209 166.502 223.199 166.585C223.176 166.69 223.123 166.787 223.045 166.862C222.967 166.937 222.869 166.987 222.762 167.006C222.656 167.025 222.546 167.012 222.447 166.968C222.348 166.924 222.265 166.852 222.207 166.761C222.165 166.689 222.143 166.608 222.143 166.525C222.143 166.442 222.165 166.36 222.207 166.289C222.343 166.049 222.551 166.073 222.551 166.121C222.551 166.169 222.487 166.257 222.479 166.385C222.471 166.513 222.535 166.617 222.687 166.593C222.839 166.569 222.855 166.473 222.807 166.329C222.759 166.185 222.655 166.193 222.655 166.137Z" fill="#263238"/>
<path d="M223.152 168.97C223.152 168.914 223.36 168.914 223.488 169.154C223.524 169.225 223.543 169.305 223.543 169.386C223.543 169.466 223.524 169.546 223.488 169.618C223.436 169.71 223.359 169.786 223.267 169.838C223.174 169.889 223.069 169.914 222.963 169.91C222.858 169.906 222.755 169.873 222.667 169.814C222.579 169.755 222.508 169.674 222.464 169.578C222.434 169.502 222.423 169.421 222.43 169.341C222.437 169.26 222.462 169.183 222.504 169.114C222.656 168.882 222.856 168.906 222.856 168.954C222.856 169.002 222.792 169.09 222.776 169.226C222.76 169.362 222.776 169.482 222.976 169.498C223.176 169.514 223.2 169.394 223.2 169.242C223.2 169.09 223.136 169.026 223.152 168.97Z" fill="#263238"/>
<path d="M219.663 163.2C219.663 163.2 219.519 163.2 219.319 163.24C219.176 163.294 219.048 163.383 218.948 163.499C218.847 163.615 218.777 163.754 218.743 163.904C218.631 164.392 218.548 164.886 218.495 165.384C218.399 165.976 218.295 166.592 218.191 167.232L218.135 167.568L217.871 167.384L217.391 167.048C216.354 166.303 215.375 165.479 214.463 164.584C214.063 164.235 213.718 163.828 213.439 163.376C213.527 163.288 215.223 164.976 217.631 166.704L218.103 167.04L217.783 167.184L218.127 165.312C218.205 164.801 218.326 164.298 218.487 163.808C218.544 163.628 218.649 163.467 218.79 163.342C218.93 163.217 219.102 163.132 219.287 163.096C219.559 163.04 219.679 163.2 219.663 163.2Z" fill="#263238"/>
<path d="M227.439 163.145C226.842 164.769 225.856 166.222 224.567 167.377L224.463 167.465L224.167 167.753L224.119 167.345C223.831 165.738 223.263 164.195 222.439 162.785C222.823 163.097 223.137 163.487 223.359 163.929C223.973 164.958 224.371 166.101 224.527 167.289L224.183 167.169L224.271 167.073C225.434 165.854 226.494 164.54 227.439 163.145Z" fill="#263238"/>
<path opacity="0.3" d="M239.176 184.176L242.608 184.352L250.336 187L249.664 189.248L239.176 184.176Z" fill="black"/>
<g opacity="0.3">
<path opacity="0.3" d="M240.352 196.729C233.049 197.442 225.7 197.568 218.376 197.105C215.861 197.076 213.373 196.577 211.04 195.633C208.226 194.283 206.054 191.881 204.992 188.945L205.648 199.137L240.352 196.729Z" fill="black"/>
</g>
<g opacity="0.7">
<path opacity="0.7" d="M206.294 173.521C206.198 173.585 205.606 172.905 204.966 171.993C204.519 171.481 204.184 170.882 203.982 170.233C204.078 170.169 204.67 170.849 205.31 171.753C205.757 172.268 206.092 172.87 206.294 173.521Z" fill="white"/>
</g>
<g opacity="0.7">
<path opacity="0.7" d="M198.775 182.288C198.908 181.45 199.179 180.639 199.575 179.888C199.86 179.085 200.271 178.331 200.791 177.656C200.653 178.493 200.383 179.303 199.991 180.056C199.708 180.861 199.298 181.614 198.775 182.288Z" fill="white"/>
</g>
<g opacity="0.7">
<path opacity="0.7" d="M208.382 185.457C207.731 185.025 207.16 184.484 206.694 183.857C206.131 183.308 205.666 182.666 205.318 181.961C206.543 182.938 207.581 184.127 208.382 185.473V185.457Z" fill="white"/>
</g>
<g opacity="0.7">
<path opacity="0.7" d="M213.528 176.336C213.6 176.424 213 177.056 212.184 177.752C211.368 178.448 210.64 178.936 210.584 178.848C210.528 178.76 211.12 178.128 211.936 177.432C212.752 176.736 213.456 176.248 213.528 176.336Z" fill="white"/>
</g>
<g opacity="0.7">
<path opacity="0.7" d="M215.2 172.289C215.12 172.369 214.504 171.857 213.936 171.065C213.368 170.273 213.072 169.529 213.136 169.465C213.2 169.401 213.688 170.041 214.24 170.801C214.792 171.561 215.288 172.209 215.2 172.289Z" fill="white"/>
</g>
<g opacity="0.7">
<path opacity="0.7" d="M216.615 190.273C216.024 190.857 215.363 191.365 214.647 191.785C214.008 192.318 213.307 192.769 212.559 193.129C213.05 192.446 213.68 191.874 214.407 191.449C215.054 190.91 215.806 190.509 216.615 190.273Z" fill="white"/>
</g>
<g opacity="0.7">
<path opacity="0.7" d="M218.35 185.144C218.27 185.224 217.55 184.704 216.75 183.976C215.95 183.248 215.39 182.592 215.47 182.512C215.55 182.432 216.27 182.944 217.07 183.672C217.87 184.4 218.398 185.056 218.35 185.144Z" fill="white"/>
</g>
<g opacity="0.7">
<path opacity="0.7" d="M222.656 179.32C222.749 177.979 223.264 176.702 224.128 175.672C224.012 176.323 223.797 176.951 223.488 177.536C223.301 178.169 223.021 178.77 222.656 179.32Z" fill="white"/>
</g>
<g opacity="0.7">
<path opacity="0.7" d="M224.575 194.265C224.511 194.353 223.735 193.857 222.975 193.001C222.477 192.528 222.125 191.923 221.959 191.257C222.063 191.201 222.583 191.913 223.287 192.729C223.991 193.545 224.655 194.177 224.575 194.265Z" fill="white"/>
</g>
<g opacity="0.7">
<path opacity="0.7" d="M227.544 187.128C227.464 187.216 226.744 186.616 225.872 185.792C225 184.968 224.408 184.24 224.488 184.152C225.125 184.49 225.693 184.946 226.16 185.496C227 186.312 227.624 187.048 227.544 187.128Z" fill="white"/>
</g>
<g opacity="0.7">
<path opacity="0.7" d="M235.247 192.584C234.712 193.152 234.113 193.656 233.463 194.088C232.897 194.627 232.278 195.106 231.615 195.52C231.997 194.813 232.546 194.212 233.215 193.768C233.788 193.217 234.485 192.811 235.247 192.584Z" fill="white"/>
</g>
<g opacity="0.7">
<path opacity="0.7" d="M235.023 186.328C235.095 186.424 234.319 187.128 233.295 187.928C232.711 188.463 232.04 188.894 231.311 189.2C231.789 188.571 232.374 188.029 233.039 187.6C233.624 187.069 234.295 186.639 235.023 186.328Z" fill="white"/>
</g>
<g opacity="0.7">
<path opacity="0.7" d="M236.456 181.176C236.125 180.522 235.955 179.798 235.96 179.064C235.835 178.342 235.89 177.6 236.12 176.904C236.301 177.599 236.387 178.315 236.376 179.032C236.501 179.74 236.528 180.461 236.456 181.176Z" fill="white"/>
</g>
<g opacity="0.7">
<path opacity="0.7" d="M231.2 179.424C231.304 179.48 231.064 180.112 230.672 180.84C230.28 181.568 229.872 182.112 229.776 182.056C229.68 182 229.912 181.368 230.304 180.64C230.696 179.912 231.088 179.368 231.2 179.424Z" fill="white"/>
</g>
<g opacity="0.7">
<path opacity="0.7" d="M231.536 171.4C230.078 170.756 228.745 169.86 227.6 168.752C228.354 169.014 229.058 169.403 229.68 169.904C230.378 170.294 231.006 170.8 231.536 171.4Z" fill="white"/>
</g>
<g opacity="0.7">
<path opacity="0.7" d="M236.8 168.474C236.006 168.43 235.239 168.176 234.576 167.738C233.85 167.414 233.221 166.907 232.752 166.266C233.458 166.574 234.135 166.943 234.776 167.37C235.481 167.678 236.159 168.047 236.8 168.474Z" fill="white"/>
</g>
<g opacity="0.7">
<path opacity="0.7" d="M240.944 171.648C240.391 171.955 239.806 172.199 239.2 172.376C238.64 172.672 238.046 172.9 237.432 173.056C237.368 172.968 238.04 172.384 239.032 171.984C239.618 171.673 240.287 171.555 240.944 171.648Z" fill="white"/>
</g>
<g opacity="0.7">
<path opacity="0.7" d="M243.672 180.08C243.706 179.176 243.932 178.29 244.336 177.48C244.617 176.621 245.072 175.829 245.672 175.152C245.441 176.011 245.125 176.845 244.728 177.64C244.455 178.486 244.101 179.303 243.672 180.08Z" fill="white"/>
</g>
<g opacity="0.7">
<path opacity="0.7" d="M249.311 183.48C249.023 182.79 248.868 182.052 248.855 181.304C248.706 180.574 248.693 179.823 248.815 179.088C249.104 179.775 249.259 180.511 249.271 181.256C249.42 181.989 249.433 182.742 249.311 183.48Z" fill="white"/>
</g>
<g opacity="0.7">
<path opacity="0.7" d="M193.543 176.328C193.608 176.965 193.537 177.609 193.335 178.216C193.263 178.851 193.052 179.463 192.719 180.008C192.654 179.374 192.725 178.733 192.927 178.128C193 177.491 193.21 176.877 193.543 176.328Z" fill="white"/>
</g>
<g opacity="0.7">
<path opacity="0.7" d="M201.927 188.281C200.538 188.329 199.172 187.919 198.039 187.113C198.715 187.189 199.378 187.359 200.007 187.617C200.674 187.749 201.321 187.973 201.927 188.281Z" fill="white"/>
</g>
<g opacity="0.7">
<path opacity="0.7" d="M211.536 165.76C211.576 165.872 210.944 166.184 210.2 166.624C209.456 167.064 208.864 167.424 208.784 167.368C208.704 167.312 209.2 166.72 209.984 166.264C210.768 165.808 211.504 165.656 211.536 165.76Z" fill="white"/>
</g>
<g opacity="0.7">
<path opacity="0.7" d="M201.528 173.745C200.939 173.816 200.343 173.75 199.784 173.553C198.848 173.337 198.104 173.073 198.136 172.961C198.724 172.89 199.321 172.956 199.88 173.153C200.8 173.369 201.6 173.601 201.528 173.745Z" fill="white"/>
</g>
<g opacity="0.7">
<path opacity="0.7" d="M216.583 164.112C216.543 164.216 215.927 164.048 215.335 163.568C214.743 163.088 214.455 162.512 214.535 162.456C214.615 162.4 215.039 162.8 215.591 163.256C216.143 163.712 216.631 164 216.583 164.112Z" fill="white"/>
</g>
<g opacity="0.7">
<path opacity="0.7" d="M226.216 161.888C226.296 161.968 225.992 162.408 225.536 162.864C225.08 163.32 224.64 163.616 224.56 163.536C224.48 163.456 224.784 163.024 225.24 162.568C225.696 162.112 226.136 161.808 226.216 161.888Z" fill="white"/>
</g>
<path d="M175.087 330.52L170.031 333.448C170.031 333.448 173.751 345.6 171.471 343.44C169.431 341.512 161.807 326.904 160.007 323.296L159.607 322.496L168.215 317.816L175.087 330.52Z" fill="#0E7DED"/>
<g opacity="0.5">
<path opacity="0.5" d="M162.335 327.025C163.295 326.226 163.928 325.101 164.111 323.865C164.291 322.643 164.006 321.398 163.311 320.377L159.799 322.401L162.335 327.025Z" fill="white"/>
</g>
<path opacity="0.5" d="M171.663 339.498C171.663 339.498 172.727 343.89 171.839 343.77C170.951 343.65 162.695 329.186 159.607 322.49L159.903 322.346L169.391 339.306C169.391 339.306 171.199 338.778 171.663 339.498Z" fill="white"/>
<path d="M159.799 322.145C159.826 322.223 159.861 322.298 159.903 322.369L160.215 323.017L161.431 325.417C162.471 327.409 163.943 330.129 165.639 333.097C167.335 336.065 168.919 338.697 170.103 340.641L171.511 342.889L171.903 343.489L172.047 343.697C172.02 343.618 171.982 343.542 171.935 343.473L171.567 342.849L170.207 340.569C169.055 338.649 167.487 335.985 165.791 333.017C164.095 330.049 162.591 327.329 161.543 325.361L160.279 323.025C160.151 322.793 160.039 322.585 159.927 322.393C159.815 322.201 159.807 322.137 159.799 322.145Z" fill="#263238"/>
<path d="M169.191 339.409C169.631 339.297 170.082 339.233 170.535 339.216C170.987 339.258 171.433 339.352 171.863 339.496C171.496 339.184 171.025 339.021 170.543 339.04C170.063 338.994 169.582 339.125 169.191 339.409Z" fill="#263238"/>
<path d="M168.951 334.592C169.419 334.73 169.913 334.752 170.391 334.656C170.167 334.561 169.923 334.52 169.679 334.536C169.435 334.499 169.186 334.518 168.951 334.592Z" fill="#263238"/>
<path d="M168.912 333.256C168.912 333.304 169.144 333.424 169.464 333.528C169.784 333.632 170.056 333.688 170.072 333.64C170.088 333.592 169.84 333.472 169.52 333.36C169.2 333.248 168.928 333.208 168.912 333.256Z" fill="#263238"/>
<path d="M169.734 331.921C169.778 332.177 169.88 332.42 170.03 332.633C170.23 333.001 170.438 333.281 170.478 333.257C170.434 333 170.333 332.757 170.182 332.545C169.982 332.177 169.782 331.905 169.734 331.921Z" fill="#263238"/>
<path d="M170.455 331.201C170.433 331.504 170.506 331.806 170.663 332.065C170.871 332.513 171.159 332.801 171.199 332.769C171.099 332.491 170.973 332.223 170.823 331.969C170.721 331.704 170.598 331.447 170.455 331.201Z" fill="#263238"/>
<path d="M170.302 334.4C170.415 334.691 170.575 334.961 170.774 335.2C170.98 335.474 171.211 335.728 171.462 335.96C171.609 336.106 171.773 336.232 171.95 336.336C172.005 336.37 172.065 336.393 172.129 336.402C172.192 336.412 172.256 336.408 172.318 336.392C172.385 336.372 172.445 336.332 172.489 336.278C172.533 336.224 172.56 336.158 172.566 336.088C172.542 335.691 172.38 335.314 172.109 335.022C171.838 334.73 171.473 334.541 171.078 334.488C170.846 334.455 170.608 334.471 170.382 334.536C170.299 334.556 170.22 334.591 170.15 334.64C170.452 334.586 170.761 334.586 171.062 334.64C171.381 334.7 171.675 334.85 171.91 335.072C172.199 335.331 172.374 335.693 172.398 336.08C172.398 336.264 172.19 336.304 172.022 336.208C171.862 336.105 171.71 335.99 171.566 335.864C171.316 335.643 171.083 335.402 170.87 335.144C170.51 334.688 170.326 334.4 170.302 334.4Z" fill="#263238"/>
<path d="M170.399 334.625C170.628 334.625 170.849 334.543 171.022 334.393C171.223 334.249 171.382 334.056 171.486 333.833C171.562 333.693 171.602 333.536 171.602 333.377C171.602 333.218 171.562 333.061 171.486 332.921C171.417 332.854 171.323 332.816 171.226 332.816C171.13 332.816 171.036 332.854 170.967 332.921C170.846 333.013 170.748 333.13 170.679 333.265C170.561 333.477 170.469 333.702 170.406 333.937C170.329 334.144 170.307 334.367 170.342 334.585C170.342 334.585 170.399 334.345 170.527 333.969C170.602 333.753 170.701 333.546 170.822 333.353C170.926 333.145 171.19 332.889 171.35 333.073C171.399 333.191 171.421 333.318 171.414 333.445C171.407 333.573 171.372 333.697 171.31 333.809C171.217 334.012 171.08 334.192 170.91 334.337C170.749 334.449 170.578 334.545 170.399 334.625Z" fill="#263238"/>
<path d="M163.415 320.424C163.415 320.424 163.655 320.768 163.911 321.376C164.251 322.17 164.364 323.042 164.239 323.896C164.095 324.75 163.721 325.549 163.159 326.208C162.727 326.704 162.359 326.936 162.359 326.96C162.452 326.928 162.539 326.879 162.615 326.816C162.838 326.665 163.042 326.488 163.223 326.288C163.833 325.632 164.236 324.812 164.383 323.928C164.516 323.043 164.382 322.138 163.999 321.328C163.884 321.086 163.745 320.855 163.583 320.64C163.495 320.488 163.423 320.416 163.415 320.424Z" fill="#263238"/>
<path d="M164.479 327.913C164.687 328.597 164.979 329.253 165.351 329.865C165.67 330.506 166.077 331.101 166.559 331.633C166.599 331.633 166.079 330.833 165.503 329.785C164.927 328.737 164.527 327.889 164.479 327.913Z" fill="#263238"/>
<path d="M163.064 325.424C163.016 325.424 162.928 325.592 162.784 325.784C162.64 325.976 162.504 326.12 162.528 326.16C162.552 326.2 162.768 326.112 162.928 325.888C163.088 325.664 163.112 325.432 163.064 325.424Z" fill="#263238"/>
<path d="M163.695 323.824C163.647 323.824 163.567 323.968 163.503 324.176C163.439 324.384 163.439 324.56 163.503 324.576C163.567 324.592 163.631 324.432 163.695 324.224C163.759 324.016 163.743 323.84 163.695 323.824Z" fill="#263238"/>
<path d="M163.464 322.184C163.424 322.184 163.528 322.384 163.568 322.608C163.608 322.832 163.568 323.024 163.632 323.04C163.696 323.056 163.792 322.848 163.736 322.576C163.68 322.304 163.496 322.144 163.464 322.184Z" fill="#263238"/>
<path d="M163.2 321.088C163.152 321.088 163.128 321.2 163.144 321.328C163.16 321.456 163.216 321.56 163.264 321.552C163.312 321.544 163.336 321.432 163.32 321.304C163.304 321.176 163.2 321.08 163.2 321.088Z" fill="#263238"/>
<path d="M258.008 341.776L257.824 347.624C257.824 347.624 270.112 350.88 267.072 351.672C264.352 352.392 247.928 351.137 243.92 350.761L243.016 350.672L243.592 340.896L258.008 341.776Z" fill="#0E7DED"/>
<g opacity="0.5">
<path opacity="0.5" d="M248.303 350.753C248.141 349.506 247.519 348.364 246.559 347.553C245.623 346.762 244.424 346.35 243.199 346.401L243.047 350.473L248.303 350.753Z" fill="white"/>
</g>
<path opacity="0.5" d="M263.824 349.434C263.824 349.434 268.112 350.85 267.544 351.538C266.976 352.226 250.336 351.594 243.016 350.674V350.346L262.424 351.258C262.424 351.258 262.968 349.434 263.824 349.434Z" fill="white"/>
<path d="M242.824 350.328H243.072L243.792 350.392L246.432 350.608C248.672 350.776 251.76 350.968 255.176 351.104C258.592 351.24 261.696 351.288 263.936 351.296H266.584H267.312C267.394 351.308 267.478 351.308 267.56 351.296C267.478 351.284 267.394 351.284 267.312 351.296H266.584L263.936 351.248C261.696 351.208 258.6 351.136 255.184 351.008C251.768 350.88 248.68 350.704 246.44 350.568L243.792 350.408H243.072C242.993 350.371 242.91 350.344 242.824 350.328Z" fill="#263238"/>
<path d="M262.448 351.48C262.584 351.048 262.766 350.632 262.992 350.24C263.269 349.877 263.585 349.547 263.936 349.256C263.477 349.408 263.087 349.72 262.84 350.136C262.548 350.52 262.408 350.999 262.448 351.48Z" fill="#263238"/>
<path d="M258.231 349.137C258.231 349.137 258.487 348.921 258.711 348.593C258.935 348.265 259.087 347.977 259.047 347.953C259.007 347.929 258.791 348.169 258.567 348.497C258.343 348.825 258.191 349.105 258.231 349.137Z" fill="#263238"/>
<path d="M257.072 348.464C257.072 348.504 257.344 348.36 257.6 348.144C257.856 347.928 258.048 347.72 258.016 347.68C257.984 347.64 257.744 347.792 257.488 348.008C257.232 348.224 257.04 348.432 257.072 348.464Z" fill="#263238"/>
<path d="M256.375 347.064C256.873 347.2 257.395 347.225 257.903 347.136C257.662 347.039 257.403 346.995 257.143 347.008C256.886 346.972 256.624 346.991 256.375 347.064Z" fill="#263238"/>
<path d="M256.16 346.08C256.406 346.255 256.698 346.353 257 346.36C257.295 346.417 257.6 346.389 257.88 346.28C257.596 346.218 257.307 346.186 257.016 346.184C256.734 346.125 256.448 346.09 256.16 346.08Z" fill="#263238"/>
<path d="M258.775 347.88C259.085 347.939 259.402 347.939 259.711 347.88C260.05 347.85 260.385 347.789 260.711 347.696C260.914 347.65 261.11 347.581 261.295 347.488C261.409 347.426 261.495 347.323 261.535 347.2C261.554 347.132 261.552 347.059 261.529 346.992C261.507 346.925 261.464 346.866 261.407 346.824C261.181 346.704 260.931 346.636 260.675 346.625C260.419 346.613 260.164 346.658 259.928 346.757C259.692 346.856 259.48 347.005 259.309 347.195C259.137 347.385 259.01 347.611 258.935 347.856C258.918 347.94 258.918 348.027 258.935 348.112C259.039 347.82 259.194 347.55 259.391 347.312C259.605 347.075 259.883 346.906 260.191 346.824C260.375 346.768 260.569 346.75 260.76 346.771C260.951 346.791 261.136 346.85 261.303 346.944C261.447 347.056 261.383 347.232 261.215 347.32C261.045 347.409 260.865 347.479 260.679 347.528C260.359 347.622 260.033 347.694 259.703 347.744C259.127 347.864 258.775 347.856 258.775 347.88Z" fill="#263238"/>
<path d="M259.015 347.936C259.135 347.743 259.181 347.512 259.143 347.288C259.122 347.044 259.046 346.809 258.919 346.6C258.843 346.452 258.728 346.327 258.588 346.237C258.448 346.147 258.286 346.096 258.119 346.088C258.025 346.107 257.941 346.162 257.884 346.24C257.828 346.319 257.803 346.416 257.815 346.512C257.833 346.662 257.882 346.806 257.96 346.936C258.074 347.149 258.217 347.345 258.383 347.52C258.523 347.692 258.701 347.829 258.903 347.92C258.903 347.92 258.719 347.744 258.479 347.44C258.335 347.261 258.209 347.068 258.103 346.864C257.983 346.656 257.911 346.296 258.143 346.264C258.375 346.232 258.615 346.496 258.751 346.688C258.872 346.875 258.953 347.085 258.991 347.304C259.017 347.514 259.025 347.725 259.015 347.936Z" fill="#263238"/>
<path d="M243.271 346.352C243.271 346.352 243.687 346.352 244.343 346.432C245.199 346.564 246.002 346.93 246.663 347.488C247.307 348.06 247.785 348.795 248.047 349.616C248.247 350.256 248.255 350.672 248.287 350.672C248.301 350.574 248.301 350.474 248.287 350.376C248.274 350.105 248.231 349.837 248.159 349.576C247.928 348.71 247.444 347.932 246.767 347.344C246.087 346.767 245.253 346.403 244.367 346.296C244.102 346.269 243.833 346.269 243.567 346.296C243.375 346.312 243.271 346.336 243.271 346.352Z" fill="#263238"/>
<path d="M250.191 349.409C250.884 349.591 251.596 349.688 252.311 349.697C253.027 349.764 253.748 349.735 254.455 349.609C254.455 349.561 253.495 349.609 252.319 349.521C251.143 349.433 250.199 349.353 250.191 349.409Z" fill="#263238"/>
<path d="M247.336 349.288C247.336 349.328 247.408 349.496 247.496 349.72C247.584 349.944 247.632 350.136 247.68 350.136C247.728 350.136 247.768 349.904 247.68 349.648C247.592 349.392 247.368 349.256 247.336 349.288Z" fill="#263238"/>
<path d="M246.31 347.912C246.27 347.912 246.358 348.096 246.51 348.256C246.662 348.416 246.798 348.52 246.838 348.48C246.878 348.44 246.782 348.296 246.638 348.136C246.494 347.976 246.342 347.88 246.31 347.912Z" fill="#263238"/>
<path d="M244.799 347.241C244.799 347.289 245.007 347.297 245.215 347.377C245.423 347.457 245.575 347.585 245.615 347.553C245.655 347.521 245.543 347.313 245.279 347.209C245.015 347.105 244.799 347.201 244.799 347.241Z" fill="#263238"/>
<path d="M243.711 346.904C243.711 346.952 243.767 347.032 243.887 347.08C244.007 347.128 244.119 347.136 244.135 347.08C244.151 347.024 244.079 346.952 243.959 346.904C243.839 346.856 243.727 346.864 243.711 346.904Z" fill="#263238"/>
<path d="M215.015 238.777C215.015 238.777 213.959 266.657 209.687 281.113C205.415 295.569 193.943 299.081 186.487 303.737C179.399 308.177 163.551 316.593 163.551 316.593L172.495 332.089C172.495 332.089 216.231 313.577 224.031 297.009C230.015 284.281 236.567 260.849 236.567 260.849L215.015 238.777Z" fill="#263238"/>
<path d="M239.575 226.305C239.575 226.305 258.023 264.945 262.951 275.433C263.467 276.529 263.706 277.735 263.647 278.945L260.391 344.073L241.679 343.129L243.703 280.321L211.999 240.553C209.267 237.18 207.323 233.238 206.311 229.017C205.974 227.636 205.797 226.222 205.783 224.801L239.599 226.305" fill="#263238"/>
<path d="M317.199 314.56L149.231 326.848L141.055 203.656L307.759 191.984L317.199 314.56Z" fill="white"/>
<path d="M317.199 314.56C317.199 314.56 317.127 313.8 317.007 312.328C316.887 310.856 316.719 308.672 316.487 305.832C316.039 300.136 315.383 291.776 314.543 281.096C312.871 259.752 310.487 229.096 307.591 192L307.767 192.152L141.071 203.864L141.263 203.64C141.263 203.928 141.263 204.232 141.327 204.544C144.231 248.4 146.983 289.992 149.423 326.84L149.223 326.664L270.423 317.864L304.887 315.392L314.039 314.744L316.391 314.584L317.191 314.536C317.191 314.536 316.935 314.536 316.391 314.608L314.055 314.792L304.951 315.48L270.551 318.048L149.247 327.04H149.063V326.848C146.615 290 143.847 248.448 140.927 204.552C140.927 204.248 140.927 203.936 140.863 203.656V203.448H141.071L307.767 191.816H307.935V191.984C310.759 229.168 313.095 259.832 314.719 281.208C315.519 291.872 316.151 300.216 316.575 305.904C316.783 308.744 316.951 310.912 317.055 312.376C317.159 313.84 317.199 314.56 317.199 314.56Z" fill="#263238"/>
<path d="M276.743 210.633C277.087 210.633 278.559 231.793 280.023 257.937C281.487 284.081 282.423 305.297 282.055 305.321C281.687 305.345 280.247 284.161 278.775 258.009C277.303 231.857 276.399 210.649 276.743 210.633Z" fill="#263238"/>
<path d="M261.824 210.4C262.176 210.4 263.64 231.568 265.112 257.712C266.584 283.856 267.512 305.072 267.144 305.088C266.776 305.104 265.328 283.928 263.864 257.776C262.4 231.624 261.48 210.4 261.824 210.4Z" fill="#263238"/>
<path d="M216.16 211.041C216.504 211.041 217.976 232.201 219.448 258.345C220.92 284.489 221.848 305.713 221.48 305.729C221.112 305.745 219.664 284.569 218.2 258.417C216.736 232.265 215.816 211.057 216.16 211.041Z" fill="#263238"/>
<path d="M230.591 210.4C230.935 210.4 232.407 231.568 233.871 257.712C235.335 283.856 236.271 305.072 235.903 305.096C235.535 305.12 234.095 283.936 232.623 257.784C231.151 231.632 230.247 210.448 230.591 210.4Z" fill="#263238"/>
<path d="M245.014 209.816C245.358 209.816 246.83 230.976 248.294 257.12C249.758 283.264 250.694 304.488 250.334 304.504C249.974 304.52 248.518 283.344 247.046 257.192C245.574 231.04 244.67 209.832 245.014 209.816Z" fill="#263238"/>
<path d="M200.12 213.16C200.464 213.16 201.936 234.32 203.4 260.464C204.864 286.608 205.8 307.824 205.432 307.848C205.064 307.872 203.624 286.688 202.152 260.536C200.68 234.384 199.776 213.176 200.12 213.16Z" fill="#263238"/>
<path d="M184.304 214.105C184.648 214.105 186.12 235.265 187.584 261.409C189.048 287.553 189.968 308.801 189.6 308.801C189.232 308.801 187.784 287.641 186.312 261.489C184.84 235.337 184 214.121 184.304 214.105Z" fill="#263238"/>
<path d="M168.487 215.049C168.839 215.049 170.303 236.217 171.775 262.361C173.247 288.505 174.175 309.721 173.807 309.745C173.439 309.769 171.999 288.585 170.527 262.401C169.055 236.217 168.143 215.073 168.487 215.049Z" fill="#263238"/>
<path d="M189.199 179.912C189.199 179.912 170.559 193.6 174.087 204.528C178.327 217.648 208.135 228.152 208.135 228.152C210.471 230.096 213.031 232.152 214.535 233.128C217.735 235.184 217.847 234.872 217.935 234.416C218.159 233.208 212.391 230.568 213.799 230.32C215.207 230.072 220.655 234.48 220.847 233.192C221.095 231.512 215.031 228.88 214.527 228.616C214.023 228.352 214.223 227.52 214.671 227.816C215.311 228.2 222.143 232.048 222.399 230.408C222.543 229.504 221.087 229.096 221.087 229.096C221.087 229.096 214.543 226.016 214.687 225.248C214.831 224.48 218.687 226.136 219.991 226.8C221.295 227.464 221.959 227.048 221.655 226.176C221.447 225.584 217.527 223.44 216.247 222.816C214.967 222.192 211.447 220.544 213.527 219.752C215.607 218.96 216.839 217.352 216.887 216.616C216.935 215.88 216.039 215.36 215.575 215.92C215.029 216.455 214.392 216.888 213.695 217.2C213.221 217.445 212.706 217.597 212.175 217.648C209.399 215.944 189.551 203.656 189.471 201.472C189.383 199.12 199.471 190.432 199.471 190.432L189.199 179.912Z" fill="#B78876"/>
<path d="M223.678 140.242C223.678 140.362 223.15 140.338 222.566 140.426C221.982 140.514 221.494 140.658 221.438 140.554C221.382 140.45 221.83 140.106 222.502 140.01C223.174 139.914 223.71 140.138 223.678 140.242Z" fill="#263238"/>
<path d="M230.967 139.872C230.887 139.968 230.511 139.768 230.015 139.688C229.519 139.608 229.103 139.64 229.063 139.528C229.023 139.416 229.479 139.16 230.095 139.272C230.711 139.384 231.047 139.792 230.967 139.872Z" fill="#263238"/>
<path d="M325.6 137.464C319.392 168.272 296.8 284.104 290.792 315.016C290.398 317.043 290.821 319.144 291.969 320.861C293.117 322.578 294.896 323.772 296.92 324.184L423.728 349.88C424.741 350.084 425.785 350.087 426.799 349.886C427.813 349.686 428.777 349.287 429.636 348.712C430.495 348.137 431.231 347.398 431.803 346.537C432.375 345.676 432.771 344.71 432.968 343.696L450.328 254.136L461.152 255.808C462.429 256.004 463.731 255.697 464.785 254.95C465.839 254.204 466.562 253.077 466.8 251.808L480 179.48C480.118 178.837 480.108 178.178 479.97 177.539C479.833 176.901 479.571 176.295 479.2 175.758C478.828 175.221 478.354 174.762 477.805 174.408C477.256 174.054 476.643 173.812 476 173.696L466.28 171.872L467.552 164.88C467.918 162.863 467.474 160.784 466.316 159.093C465.158 157.402 463.38 156.236 461.368 155.848L334.68 131.36C332.668 130.98 330.588 131.408 328.889 132.55C327.189 133.692 326.008 135.457 325.6 137.464Z" fill="#263238"/>
<path d="M335.032 140.439L293.16 317.631L423.256 347.447L464.256 171.503L335.032 140.439Z" fill="#E0E0E0"/>
<path d="M319.904 133.855L290.088 313.463L421.912 334.431L450.936 156.127L319.904 133.855Z" fill="#EBEBEB"/>
<path d="M300.568 143.256L295.008 325.24L428.44 328.424L433.4 147.832L300.568 143.256Z" fill="white"/>
<path d="M300.576 143.256L433.376 147.664H433.6V147.832C432.216 198.568 430.512 260.992 428.672 328.416V328.624H428.464H427.488L295.024 325.424H294.832V325.232C298.24 217.6 300.536 144.928 300.592 143.256C300.52 144.928 298.4 217.6 295.2 325.248L295.016 325.056L427.48 328.192H428.456L428.24 328.392C430.112 260.968 431.84 198.544 433.24 147.8L433.408 147.976L300.576 143.256Z" fill="#263238"/>
<path d="M414.688 182.185C414.688 182.537 391.728 182.497 363.424 182.113C335.12 181.729 312.168 181.137 312.168 180.793C312.168 180.449 335.128 180.481 363.44 180.865C391.752 181.249 414.696 181.841 414.688 182.185Z" fill="#263238"/>
<path d="M415.649 198.289C415.649 198.633 392.697 198.601 364.385 198.217C336.073 197.833 313.129 197.233 313.137 196.889C313.145 196.545 336.089 196.577 364.401 196.961C392.713 197.345 415.657 197.945 415.649 198.289Z" fill="#263238"/>
<path d="M417.024 247.641C417.024 247.985 394.064 247.953 365.76 247.569C337.456 247.185 314.496 246.593 314.504 246.241C314.512 245.889 337.456 245.929 365.776 246.321C394.096 246.713 417.024 247.297 417.024 247.641Z" fill="#263238"/>
<path d="M417.024 232C417.024 232.344 394.064 232.312 365.76 231.92C337.456 231.528 314.496 230.944 314.504 230.6C314.512 230.256 337.456 230.288 365.776 230.672C394.096 231.056 417.024 231.688 417.024 232Z" fill="#263238"/>
<path d="M417.024 216.416C417.024 216.76 394.064 216.728 365.76 216.344C337.456 215.96 314.496 215.368 314.504 215.024C314.512 214.68 337.456 214.712 365.776 215.096C394.096 215.48 417.024 216.072 417.024 216.416Z" fill="#263238"/>
<path d="M415.471 265.064C415.471 265.408 392.511 265.376 364.207 264.992C335.903 264.608 312.951 264.016 312.951 263.672C312.951 263.328 335.911 263.36 364.223 263.744C392.535 264.128 415.479 264.72 415.471 265.064Z" fill="#263238"/>
<path d="M415.2 282.191C415.2 282.535 392.24 282.503 363.936 282.119C335.632 281.735 312.672 281.135 312.68 280.791C312.688 280.447 335.632 280.479 363.952 280.863C392.272 281.247 415.2 281.847 415.2 282.191Z" fill="#263238"/>
<path d="M414.879 299.312C414.879 299.656 391.919 299.624 363.607 299.24C335.295 298.856 312.351 298.264 312.359 297.92C312.367 297.576 335.311 297.608 363.631 297.992C391.951 298.376 414.879 298.968 414.879 299.312Z" fill="#263238"/>
<path d="M431.735 185.872C449.656 185.872 464.183 171.33 464.183 153.392C464.183 135.454 449.656 120.912 431.735 120.912C413.815 120.912 399.287 135.454 399.287 153.392C399.287 171.33 413.815 185.872 431.735 185.872Z" fill="#0E7DED"/>
<path opacity="0.5" d="M431.767 185.872C449.705 185.872 464.247 171.33 464.247 153.392C464.247 135.454 449.705 120.912 431.767 120.912C413.829 120.912 399.287 135.454 399.287 153.392C399.287 171.33 413.829 185.872 431.767 185.872Z" fill="black"/>
<path d="M428.169 185.872C446.089 185.872 460.617 171.33 460.617 153.392C460.617 135.454 446.089 120.912 428.169 120.912C410.248 120.912 395.721 135.454 395.721 153.392C395.721 171.33 410.248 185.872 428.169 185.872Z" fill="#0E7DED"/>
<path d="M428.407 134.256H427.943C427.024 134.256 426.279 135.001 426.279 135.92V170.872C426.279 171.791 427.024 172.536 427.943 172.536H428.407C429.326 172.536 430.071 171.791 430.071 170.872V135.92C430.071 135.001 429.326 134.256 428.407 134.256Z" fill="#FAFAFA"/>
<path d="M409.049 153.177V153.625C409.049 154.548 409.797 155.297 410.721 155.297H445.633C446.556 155.297 447.305 154.548 447.305 153.625V153.177C447.305 152.253 446.556 151.505 445.633 151.505H410.721C409.797 151.505 409.049 152.253 409.049 153.177Z" fill="#FAFAFA"/>
</svg>
