<svg width="20" height="20" viewBox="0 0 20 20" fill="none" xmlns="http://www.w3.org/2000/svg">
<path d="M10 12.5C11.3807 12.5 12.5 11.3807 12.5 10C12.5 8.61929 11.3807 7.5 10 7.5C8.61929 7.5 7.5 8.61929 7.5 10C7.5 11.3807 8.61929 12.5 10 12.5Z" stroke="black" stroke-width="1.5" stroke-linecap="round" stroke-linejoin="round"/>
<path d="M16.1666 12.5006C16.0557 12.752 16.0226 13.0308 16.0716 13.3011C16.1206 13.5715 16.2495 13.8209 16.4416 14.0173L16.4916 14.0673C16.6465 14.2221 16.7695 14.4059 16.8533 14.6082C16.9372 14.8106 16.9804 15.0275 16.9804 15.2465C16.9804 15.4655 16.9372 15.6824 16.8533 15.8847C16.7695 16.087 16.6465 16.2709 16.4916 16.4256C16.3368 16.5806 16.153 16.7035 15.9507 16.7874C15.7483 16.8713 15.5314 16.9145 15.3124 16.9145C15.0934 16.9145 14.8765 16.8713 14.6742 16.7874C14.4719 16.7035 14.288 16.5806 14.1332 16.4256L14.0833 16.3756C13.8869 16.1835 13.6374 16.0547 13.3671 16.0056C13.0967 15.9566 12.8179 15.9897 12.5666 16.1006C12.3201 16.2063 12.1099 16.3817 11.9618 16.6053C11.8138 16.8288 11.7343 17.0908 11.7333 17.359V17.5006C11.7333 17.9427 11.5577 18.3666 11.2451 18.6792C10.9325 18.9917 10.5086 19.1673 10.0666 19.1673C9.62456 19.1673 9.20063 18.9917 8.88807 18.6792C8.57551 18.3666 8.39992 17.9427 8.39992 17.5006V17.4256C8.39347 17.1498 8.30418 16.8823 8.14368 16.6579C7.98317 16.4335 7.75886 16.2626 7.49992 16.1673C7.24857 16.0564 6.96976 16.0233 6.69943 16.0723C6.4291 16.1213 6.17965 16.2502 5.98325 16.4423L5.93325 16.4923C5.77846 16.6473 5.59465 16.7702 5.39232 16.8541C5.18999 16.938 4.97311 16.9811 4.75408 16.9811C4.53506 16.9811 4.31818 16.938 4.11585 16.8541C3.91352 16.7702 3.72971 16.6473 3.57492 16.4923C3.41996 16.3375 3.29703 16.1537 3.21315 15.9514C3.12928 15.7491 3.08611 15.5322 3.08611 15.3131C3.08611 15.0941 3.12928 14.8772 3.21315 14.6749C3.29703 14.4726 3.41996 14.2888 3.57492 14.134L3.62492 14.084C3.81703 13.8876 3.94591 13.6381 3.99492 13.3678C4.04394 13.0975 4.01085 12.8187 3.89992 12.5673C3.79428 12.3208 3.61888 12.1106 3.39531 11.9626C3.17173 11.8145 2.90974 11.7351 2.64159 11.734H2.49992C2.05789 11.734 1.63397 11.5584 1.32141 11.2458C1.00885 10.9333 0.833252 10.5093 0.833252 10.0673C0.833252 9.62529 1.00885 9.20137 1.32141 8.88881C1.63397 8.57625 2.05789 8.40065 2.49992 8.40065H2.57492C2.85075 8.3942 3.11826 8.30492 3.34267 8.14441C3.56708 7.9839 3.73801 7.7596 3.83325 7.50065C3.94418 7.2493 3.97727 6.97049 3.92826 6.70016C3.87924 6.42983 3.75037 6.18038 3.55825 5.98398L3.50825 5.93398C3.35329 5.7792 3.23036 5.59538 3.14649 5.39305C3.06261 5.19072 3.01944 4.97384 3.01944 4.75482C3.01944 4.53579 3.06261 4.31891 3.14649 4.11658C3.23036 3.91425 3.35329 3.73044 3.50825 3.57565C3.66304 3.42069 3.84685 3.29776 4.04918 3.21388C4.25151 3.13001 4.46839 3.08684 4.68742 3.08684C4.90644 3.08684 5.12332 3.13001 5.32565 3.21388C5.52798 3.29776 5.7118 3.42069 5.86658 3.57565L5.91658 3.62565C6.11298 3.81776 6.36243 3.94664 6.63276 3.99565C6.90309 4.04467 7.1819 4.01158 7.43325 3.90065H7.49992C7.74639 3.79501 7.9566 3.61961 8.10466 3.39604C8.25272 3.17246 8.33218 2.91047 8.33325 2.64232V2.50065C8.33325 2.05862 8.50885 1.6347 8.82141 1.32214C9.13397 1.00958 9.55789 0.833984 9.99992 0.833984C10.4419 0.833984 10.8659 1.00958 11.1784 1.32214C11.491 1.6347 11.6666 2.05862 11.6666 2.50065V2.57565C11.6677 2.84381 11.7471 3.1058 11.8952 3.32937C12.0432 3.55295 12.2534 3.72835 12.4999 3.83398C12.7513 3.94491 13.0301 3.978 13.3004 3.92899C13.5707 3.87997 13.8202 3.7511 14.0166 3.55898L14.0666 3.50898C14.2214 3.35402 14.4052 3.23109 14.6075 3.14722C14.8098 3.06334 15.0267 3.02017 15.2458 3.02017C15.4648 3.02017 15.6817 3.06334 15.884 3.14722C16.0863 3.23109 16.2701 3.35402 16.4249 3.50898C16.5799 3.66377 16.7028 3.84759 16.7867 4.04992C16.8706 4.25225 16.9137 4.46912 16.9137 4.68815C16.9137 4.90718 16.8706 5.12405 16.7867 5.32638C16.7028 5.52871 16.5799 5.71253 16.4249 5.86732L16.3749 5.91732C16.1828 6.11372 16.0539 6.36316 16.0049 6.63349C15.9559 6.90382 15.989 7.18264 16.0999 7.43398V7.50065C16.2056 7.74712 16.381 7.95733 16.6045 8.10539C16.8281 8.25346 17.0901 8.33291 17.3583 8.33398H17.4999C17.9419 8.33398 18.3659 8.50958 18.6784 8.82214C18.991 9.1347 19.1666 9.55862 19.1666 10.0007C19.1666 10.4427 18.991 10.8666 18.6784 11.1792C18.3659 11.4917 17.9419 11.6673 17.4999 11.6673H17.4249C17.1568 11.6684 16.8948 11.7478 16.6712 11.8959C16.4476 12.044 16.2722 12.2542 16.1666 12.5006V12.5006Z" stroke="black" stroke-width="1.5" stroke-linecap="round" stroke-linejoin="round"/>
</svg>
